<?xml version='1.0' encoding='utf-8'?>
<svg xmlns="http://www.w3.org/2000/svg" id="svg2" viewBox="0 0 800 800"><defs><linearGradient id="Unbenannter_Verlauf" x1="478.0716" y1="498.1825" x2="165.9814" y2="215.9791" gradientTransform="matrix(1, 0, 0, -1, 0, 800)" gradientUnits="userSpaceOnUse"><stop offset="0"/><stop offset="1" stop-opacity="0"/></linearGradient></defs><title>wifi-blue-off-alt</title><circle id="circle4142" cx="400" cy="400" r="400" style="fill:#1c8adb"/><path id="path4380" d="M265.0508,177.3223,2.418,439.9551A400,400,0,0,0,294.1094,785.2793C419.3688,660.02,488.7106,590.6784,583.5586,495.83L539.32,451.59,670.0547,320.8555A382.4151,382.4151,0,0,0,308.0176,220.2891Z" style="opacity:0.41999998688697815;isolation:isolate;fill:url(#Unbenannter_Verlauf)"/><path d="M571.8535,419.0566A241.6269,241.6269,0,0,0,438.8086,351.08l8.666,8.666a234.7818,234.7818,0,0,1,114.3535,59.4375l-27.457,27.457-86.8965-86.8945L583.5586,495.83,539.32,451.59Z" style="fill:#fff"/><path d="M326.3477,517.26,400,590.91l73.6523-73.65a104.0189,104.0189,0,0,0-147.3047,0ZM400,581.0117l-63.5039-63.5039a96.4853,96.4853,0,0,1,127.0215-.0137Z" style="fill:#fff"/><path d="M400.0918,209.09a383.9432,383.9432,0,0,0-92.0742,11.1992l5.7949,5.7949A374.7436,374.7436,0,0,1,660.0313,320.98l-39.2031,39.2012c-71.6163-68.5858-167.3564-97.3423-259.2109-86.293l6.2246,6.2246A311.8618,311.8618,0,0,1,620.9551,369.957l49.1-49.1016A380.5653,380.5653,0,0,0,400.0918,209.09Z" style="fill:#fff"/><path d="M277.498,458.51l-39.32-39.32a235.5359,235.5359,0,0,1,112.4935-59.0272L283.863,293.3536a317.8954,317.8954,0,0,0-104.6911,66.828l-39.1992-39.1973a375.222,375.222,0,0,1,101.66-69.8613l-5.2988-5.2988a381.6774,381.6774,0,0,0-106.3886,75.0312l49.1,49.1016a311.3006,311.3006,0,0,1,110.1367-71.2832L344.83,354.3223a242.2955,242.2955,0,0,0-116.6836,64.7344l49.1016,49.1016a173.1571,173.1571,0,0,1,130.7871-50.6309L534.9492,544.4414,401.0966,410.5879A179.8764,179.8764,0,0,0,277.498,458.51Z" style="fill:#fff"/><path d="M265.0508,187.2218,573.6592,495.83l-38.71,38.7116-308.6082-308.61,38.71-38.71m0-9.9-48.6094,48.6094,318.5078,318.51L583.5587,495.83,265.0508,177.3223Z" style="fill:#fff"/></svg>